<?xml version="1.0" standalone="no"?>
<!DOCTYPE svg PUBLIC "-//W3C//DTD SVG 20010904//EN"
 "http://www.w3.org/TR/2001/REC-SVG-20010904/DTD/svg10.dtd">
<svg version="1.0" xmlns="http://www.w3.org/2000/svg"
 width="500.000000pt" height="500.000000pt" viewBox="0 0 500.000000 500.000000"
 preserveAspectRatio="xMidYMid meet">
<metadata>
Created by potrace 1.14, written by Peter Selinger 2001-2017
</metadata>
<g transform="translate(0.000000,500.000000) scale(0.100000,-0.100000)"
fill="#000000" stroke="none">
<path d="M1567 3723 c-28 -7 -47 -57 -47 -123 0 -102 44 -128 207 -117 119 7
128 17 118 127 -10 116 -16 120 -152 119 -60 -1 -116 -3 -126 -6z m237 -32 c4
-5 9 -43 12 -84 5 -55 3 -76 -6 -82 -24 -15 -203 -17 -230 -3 -42 23 -47 144
-7 170 17 11 225 10 231 -1z"/>
<path d="M1963 3716 c-44 -33 -68 -219 -30 -243 11 -7 159 -16 507 -29 85 -4
220 -1 300 5 80 6 265 13 412 17 194 5 273 10 285 20 14 10 18 26 17 81 -1 79
-22 129 -60 143 -13 5 -329 12 -717 16 -625 5 -694 5 -714 -10z m1420 -31 c10
-4 22 -16 27 -26 15 -27 23 -132 11 -148 -7 -12 -69 -16 -323 -22 -172 -4
-379 -12 -461 -19 -121 -11 -169 -10 -265 0 -64 8 -187 16 -272 19 l-155 6 -3
35 c-4 41 15 139 31 159 9 11 128 12 702 8 379 -2 698 -8 708 -12z"/>
<path d="M1942 3324 c-29 -24 -47 -133 -33 -196 16 -71 35 -82 164 -90 248
-15 944 -21 1094 -8 259 21 269 26 258 155 -13 137 13 125 -257 125 -299 1
-1007 17 -1118 26 -74 6 -88 4 -108 -12z m293 -29 c138 -8 451 -16 698 -17
388 -2 448 -5 451 -18 3 -8 7 -45 11 -82 6 -63 5 -68 -17 -82 -40 -26 -205
-37 -600 -39 -422 -2 -790 10 -814 27 -45 33 -32 225 16 226 3 0 118 -7 255
-15z"/>
<path d="M1569 3303 c-23 -6 -52 -75 -53 -127 -2 -110 67 -144 239 -116 80 13
95 31 89 108 -7 83 -12 100 -34 122 -18 18 -33 20 -122 19 -57 -1 -110 -3
-119 -6z m228 -53 c7 -14 13 -51 13 -83 0 -53 -2 -58 -26 -67 -14 -6 -64 -11
-111 -13 -78 -2 -86 0 -104 22 -35 43 -18 156 24 164 12 2 60 3 107 3 80 -1
85 -2 97 -26z"/>
<path d="M2080 2950 c-47 -3 -91 -9 -99 -14 -40 -25 -58 -178 -23 -209 30 -27
118 -37 462 -52 694 -30 999 -12 1046 61 22 32 36 109 28 152 -13 66 15 64
-691 65 -351 1 -676 0 -723 -3z m1361 -40 c15 -8 19 -21 19 -60 0 -60 -13 -95
-39 -110 -74 -39 -374 -54 -816 -40 -365 11 -530 22 -598 41 -36 10 -37 12
-37 55 0 61 22 111 52 117 52 10 1400 7 1419 -3z"/>
<path d="M1567 2929 c-43 -25 -60 -124 -32 -179 22 -43 51 -54 140 -54 141 0
195 35 195 125 0 67 -16 97 -59 109 -48 13 -221 12 -244 -1z m251 -38 c8 -4
16 -27 19 -49 7 -56 -14 -88 -69 -103 -59 -15 -173 -8 -195 13 -19 20 -22 92
-4 126 11 21 18 22 124 22 62 0 118 -4 125 -9z"/>
<path d="M2132 2601 c-120 -6 -125 -7 -148 -34 -21 -24 -24 -38 -24 -105 0
-115 5 -120 143 -126 61 -3 306 -8 543 -12 359 -5 458 -3 600 11 219 21 217
20 212 132 -3 78 -5 87 -31 109 l-28 24 -423 0 c-233 0 -490 2 -572 4 -82 2
-205 1 -272 -3z m1255 -47 c25 -5 32 -24 36 -101 3 -42 0 -54 -13 -58 -9 -3
-86 -12 -171 -20 -225 -22 -630 -30 -844 -15 -99 6 -228 14 -286 17 l-107 5
-6 31 c-8 40 3 124 18 136 6 6 39 12 71 14 79 5 1274 -3 1302 -9z"/>
<path d="M1554 2555 c-48 -33 -55 -115 -18 -192 18 -35 22 -38 67 -41 68 -4
248 26 269 45 36 33 8 166 -40 192 -32 17 -253 14 -278 -4z m268 -32 c16 -9
40 -115 30 -125 -15 -15 -144 -37 -219 -37 -60 -1 -61 0 -72 30 -13 39 -14 99
-1 119 11 18 103 30 190 23 36 -3 68 -7 72 -10z"/>
<path d="M2012 1806 l3 -105 -21 20 c-32 30 -86 42 -135 29 -84 -23 -122 -91
-122 -216 0 -67 4 -89 24 -125 54 -98 157 -118 235 -47 21 19 22 19 28 -6 6
-24 11 -26 56 -26 l50 0 0 290 0 290 -61 0 -60 0 3 -104z m-35 -161 c44 -31
53 -146 17 -202 -11 -17 -24 -23 -52 -23 -69 0 -86 32 -83 153 2 69 66 108
118 72z"/>
<path d="M807 1874 c-4 -4 -7 -27 -7 -51 l0 -43 75 0 75 0 0 -225 0 -225 60 0
60 0 0 226 0 225 73 -2 72 -2 0 49 0 49 -201 3 c-110 1 -203 -1 -207 -4z"/>
<path d="M2789 1857 c-18 -12 -40 -34 -47 -47 -18 -35 -10 -111 17 -148 l21
-30 -31 -23 c-45 -32 -73 -99 -64 -155 8 -56 57 -108 117 -125 58 -15 155 -6
205 19 40 21 41 21 58 2 15 -17 31 -20 93 -20 l75 0 -58 53 -58 53 27 41 c15
22 36 63 46 92 l20 51 -63 0 -63 0 -22 -52 -22 -52 -49 48 -50 49 38 28 c26
18 45 43 56 73 16 41 16 50 4 83 -22 58 -68 83 -149 83 -53 0 -74 -5 -101 -23z
m125 -73 c26 -10 20 -60 -11 -84 l-28 -21 -17 21 c-43 53 -5 108 56 84z m50
-345 c-2 -4 -24 -11 -48 -14 -43 -7 -82 5 -98 29 -14 21 -8 60 14 83 l22 23
57 -56 c32 -32 56 -61 53 -65z"/>
<path d="M3402 1854 c-57 -28 -100 -81 -122 -148 -19 -59 -9 -211 18 -262 28
-54 82 -101 134 -115 48 -13 168 -7 211 10 25 10 27 15 27 62 0 49 -1 51 -22
45 -13 -4 -50 -12 -83 -18 -51 -10 -65 -9 -96 6 -55 26 -73 67 -74 161 0 157
72 217 205 170 23 -8 45 -13 49 -10 4 2 14 23 21 45 16 47 12 52 -50 70 -68
19 -161 12 -218 -16z"/>
<path d="M1413 1751 c-54 -14 -97 -46 -123 -92 -34 -61 -35 -174 -2 -236 81
-154 327 -128 373 39 16 60 6 148 -22 198 -40 71 -142 112 -226 91z m104 -115
c26 -22 28 -30 28 -93 0 -92 -19 -123 -75 -123 -50 0 -76 24 -85 79 -21 123
56 202 132 137z"/>
<path d="M2364 1750 c-95 -22 -148 -98 -148 -210 0 -125 65 -205 175 -217 106
-11 191 39 217 126 18 58 14 150 -7 197 -38 84 -138 128 -237 104z m89 -99
c33 -13 51 -68 45 -137 -6 -67 -28 -94 -77 -94 -63 0 -81 28 -81 125 0 57 3
69 25 90 26 27 49 31 88 16z"/>
<path d="M3893 1750 c-94 -22 -147 -97 -147 -209 0 -88 27 -150 85 -188 37
-25 52 -28 119 -28 66 0 82 4 117 27 57 38 83 96 83 184 -1 116 -49 187 -145
213 -45 12 -65 12 -112 1z m91 -101 c32 -15 50 -67 44 -130 -7 -70 -29 -99
-78 -99 -58 0 -80 33 -80 122 0 60 3 72 25 93 27 27 51 31 89 14z"/>
</g>
</svg>
